<svg version="1" xmlns="http://www.w3.org/2000/svg" width="682.667" height="682.667" viewBox="0 0 512.000000 512.000000"><path d="M0 256v256h512V0H0v256zM327 95c38 7.7 70.7 14 72.7 14 2.8 0 3.3.3 2.9 1.7-.3 1-1.1 4-1.7 6.8-.7 2.7-1.8 5.4-2.6 5.8-.9.6-1.3 3.3-1.3 9.7v9h3c1.7 0 3 .1 3 .2 0 .2-.7 2.7-1.4 5.5-1.3 4.7-1.2 5.3.1 5.3 1.1 0 1.4.6.9 2.2-.4 1.3-.9 3.6-1.3 5.2-.3 1.6-1.4 3.1-2.5 3.3-1.7.5-1.8 2.2-1.8 30.4V224h3.1c2.8 0 3.1.3 2.5 2.2-.4 1.3-.9 3.6-1.3 5.2-.3 1.6-1.4 3.1-2.5 3.3-1.7.5-1.8 2.3-1.8 35.9V306h3.1c2.9 0 3 .1 2.4 3.3-1.2 5.4-2.4 7.7-4 7.7-1.3 0-1.5 4.7-1.5 39v39h3.1c2.9 0 3.1.2 2.5 2.6-.4 1.5-1 4-1.3 5.6-.4 1.8-1.4 3.3-2.5 3.5-2.5.7-2.4 4.3.2 4.3 1.9 0 2 .7 2 10v10H111v-9.9c0-9 .2-9.9 2-10.4 2.5-.6 2.6-3.3.1-4.6-1-.6-2.1-2.3-2.4-3.8-.4-1.5-.9-3.8-1.3-5.1-.6-1.9-.3-2.2 2.5-2.2h3.1v-38.5c0-36.6-.1-38.5-1.9-39.4-1-.6-2.2-2.7-2.5-4.6-.4-2-1-4.3-1.3-5.1-.4-1 .3-1.4 2.6-1.4h3.1v-35.5c0-29.8-.2-35.5-1.4-35.5-.8 0-2.1-2.1-3-4.7-2.1-6.1-2-6.3.9-6.3h2.5v-29.9c0-24.3-.3-30-1.4-30.4-.7-.3-1.6-1.8-1.9-3.4-.4-1.5-.9-3.8-1.3-5.1-.5-1.6-.2-2.2.9-2.2 1.4 0 1.5-.5.2-4.8-1.9-6.2-2-6.2 1.5-6.2h3v-9c0-6.7-.3-9-1.3-9-.7 0-1.8-2.2-2.5-5.3-.6-2.8-1.4-6.2-1.8-7.5-.6-2-.3-2.2 2.7-2.2 1.9-.1 34-6.3 71.4-13.9 37.4-7.7 69.4-14 71.1-14 1.7-.1 34.3 6.2 72.4 13.9z"/><path d="M192.5 97.1c-34.7 7-63.7 13-64.5 13.2-.8.3 56.5.5 127.5.5s128.6-.1 128-.4c-.5-.2-29.6-6.1-64.5-13.2l-63.5-12.8-63 12.7zM114 114.5c0 1.3 16.4 1.5 142 1.5s142-.2 142-1.5-16.4-1.5-142-1.5-142 .2-142 1.5zM115 119.5c0 1.3 16.3 1.5 141 1.5s141-.2 141-1.5-16.3-1.5-141-1.5-141 .2-141 1.5zM118 133.5V144h276v-21H118v10.5zM114 147.5c0 1.3 16.4 1.5 142 1.5s142-.2 142-1.5-16.4-1.5-142-1.5-142 .2-142 1.5zM116 153c0 2 .7 2 140 2s140 0 140-2-.7-2-140-2-140 0-140 2zM114.2 158.7c.3 1.7 7.9 1.8 141.8 1.8s141.5-.1 141.8-1.8c.3-1.6-7-1.7-141.8-1.7s-142.1.1-141.8 1.7zM118 194.5V226h14v-63h-14v31.5zM134 194.5V226h23v-63h-23v31.5zM159 194.5c0 30.8 0 31.5 2 31.5s2-.7 2-28.4v-28.4l4.5-.6c4.2-.7 4.4-.8 3.3-3.2-1-2.1-1.8-2.4-6.5-2.4H159v31.5zM172 163.6c0 .3.5 1.4 1 2.5.9 1.6 2.2 1.9 7.5 1.9 3.6 0 6.5-.4 6.5-.9s.3-1.6.6-2.5c.5-1.4-.5-1.6-7.5-1.6-4.5 0-8.1.3-8.1.6zM189.5 165.1c-.8 2.5-.8 2.5 3.5 3.6l3.5.9.3 28.2c.2 27.4.3 28.2 2.2 28.2 2 0 2-.7 2-31.5V163h-5.4c-4.7 0-5.6.3-6.1 2.1zM203 194.5V226h30v-63h-30v31.5zM235 194.5c0 30.8 0 31.5 2 31.5s2-.7 2-28.4v-28.4l4.4-.8c4-.8 4.3-1.1 3.5-3.2-.7-1.9-1.5-2.2-6.4-2.2H235v31.5zM248.9 165.2c.7 2 1.6 2.3 7.1 2.6 4.4.2 6.6-.1 7.1-1 2.1-3.2 1-3.8-7.1-3.8-7.8 0-7.9 0-7.1 2.2zM266 163.9c0 .5-.3 1.6-.6 2.5-.5 1.2.3 1.7 3.5 2.2l4.1.7v28.3c0 27.7 0 28.4 2 28.4s2-.7 2-31.5V163h-5.5c-3 0-5.5.4-5.5.9zM279 194.5V226h30v-63h-30v31.5zM311 194.5c0 30.8 0 31.5 2 31.5s2-.7 2-28.4v-28.4l4.4-.8c4-.8 4.3-1.1 3.5-3.2-.7-1.9-1.5-2.2-6.4-2.2H311v31.5zM324.9 165.2c.7 2 1.6 2.3 7.1 2.6 4.4.2 6.6-.1 7.1-1 2.1-3.2 1-3.8-7.1-3.8-7.8 0-7.9 0-7.1 2.2zM342 163.9c0 .5-.3 1.6-.6 2.5-.5 1.2.3 1.7 3.5 2.2l4.1.7v28.3c0 27.7 0 28.4 2 28.4s2-.7 2-31.5V163h-5.5c-3 0-5.5.4-5.5.9zM355 194.5V226h24v-63h-24v31.5zM381 194.5V226h13v-63h-13v31.5z"/><path d="M171 170.9l-4.5.6-.3 7.7-.3 7.8H178v-8.5c0-6.2-.3-8.5-1.2-8.3-.7 0-3.3.4-5.8.7zM181.4 171.4c-.3.7-.4 4.4-.2 8.2l.3 6.9 6.3.3 6.2.3v-7.6c0-8.3.3-8-7.3-8.9-3.5-.4-4.9-.2-5.3.8zM247 170.9l-4.5.6-.3 7.8-.3 7.8 6.3-.3 6.3-.3v-8c0-8.9.2-8.7-7.5-7.6zM257.4 171.4c-.3.7-.4 4.4-.2 8.2l.3 6.9 6.3.3 6.2.3v-7.6c0-8.3.3-8-7.3-8.9-3.5-.4-4.9-.2-5.3.8zM323 170.9l-4.5.6-.3 7.8-.3 7.8 6.3-.3 6.3-.3v-8c0-8.9.2-8.7-7.5-7.6zM334 178.5v8.5h12v-7.5c0-8.3.2-8-7.2-8.9l-4.8-.6v8.5zM181.7 189.7c-.4.3-.7 4.2-.7 8.5v7.8h13v-17h-5.8c-3.2 0-6.2.3-6.5.7zM257.7 189.7c-.4.3-.7 4.2-.7 8.5v7.8h13v-17h-5.8c-3.2 0-6.2.3-6.5.7zM318 197.5v8.6l6.3-.3 6.2-.3v-16l-6.2-.3-6.3-.3v8.6zM334 197.5v8.5h12v-17h-12v8.5zM166 198v8h12v-16h-12v8zM242 198v8.1l6.3-.3 6.2-.3.3-7.8.3-7.7H242v8zM166 217v8h12v-16h-12v8zM181 217v8h13v-16h-13v8zM242 217v8h13v-16h-13v8zM257 217v8h13v-16h-13v8zM318 217v8h13v-16h-13v8zM334 217v8h12v-16h-12v8zM114 229.5c0 1.3 16.4 1.5 142 1.5s142-.2 142-1.5-16.4-1.5-142-1.5-142 .2-142 1.5zM118 270.5V308h14v-75h-14v37.5zM134 270.5V308h23v-75h-23v37.5zM159.8 233.7c.6.2 1.8.2 2.5 0 .6-.3.1-.5-1.3-.5-1.4 0-1.9.2-1.2.5zM165 238.5c0 5.2.1 5.5 2.6 5.5 2.1 0 2.4-.4 1.9-2-.6-1.9-.2-2 10.5-2s11.1.1 10.5 2c-.5 1.6-.2 2 1.4 2 1.9 0 2.1-.6 2.1-5.5V233h-29v5.5zM197.8 233.7c.6.2 1.8.2 2.5 0 .6-.3.1-.5-1.3-.5-1.4 0-1.9.2-1.2.5zM203 270.5V308h30v-75h-30v37.5zM235.8 233.7c.6.2 1.8.2 2.5 0 .6-.3.1-.5-1.3-.5-1.4 0-1.9.2-1.2.5zM241 238.5c0 5.2.1 5.5 2.6 5.5 2.1 0 2.4-.4 1.9-2-.6-1.9-.2-2 10.5-2s11.1.1 10.5 2c-.5 1.6-.2 2 1.4 2 1.9 0 2.1-.6 2.1-5.5V233h-29v5.5zM273.8 233.7c.6.2 1.8.2 2.5 0 .6-.3.1-.5-1.3-.5-1.4 0-1.9.2-1.2.5zM279 270.5V308h30v-75h-30v37.5zM311.8 233.7c.6.2 1.8.2 2.5 0 .6-.3.1-.5-1.3-.5-1.4 0-1.9.2-1.2.5zM317.7 233.7c-.4.3-.7 2.8-.7 5.5 0 4.5.2 4.8 2.6 4.8 2.1 0 2.5-.4 2.1-2-.5-1.9 0-2 10.4-2 10.2 0 10.9.1 10.9 2 0 1.3.7 2 2 2 1.8 0 2-.7 2-5.5V233h-14.3c-7.9 0-14.7.3-15 .7zM349.8 233.7c.6.2 1.8.2 2.5 0 .6-.3.1-.5-1.3-.5-1.4 0-1.9.2-1.2.5zM355 270.5V308h23v-75h-23v37.5zM380.6 233.8c-.3.4-.2 17.3.1 37.5l.6 36.7H393v-75h-5.9c-3.3 0-6.2.4-6.5.8zM159 237.5c0 .8.9 1.5 2 1.5s2-.7 2-1.5-.9-1.5-2-1.5-2 .7-2 1.5zM197 237.5c0 .8.9 1.5 2 1.5s2-.7 2-1.5-.9-1.5-2-1.5-2 .7-2 1.5zM235 237.5c0 .8.9 1.5 2 1.5s2-.7 2-1.5-.9-1.5-2-1.5-2 .7-2 1.5zM273 237.5c0 .8.9 1.5 2 1.5s2-.7 2-1.5-.9-1.5-2-1.5-2 .7-2 1.5zM311 237.5c0 .8.9 1.5 2 1.5s2-.7 2-1.5-.9-1.5-2-1.5-2 .7-2 1.5zM349 237.5c0 .8.9 1.5 2 1.5s2-.7 2-1.5-.9-1.5-2-1.5-2 .7-2 1.5zM159.8 241.7c.6.2 1.8.2 2.5 0 .6-.3.1-.5-1.3-.5-1.4 0-1.9.2-1.2.5zM197.8 241.7c.6.2 1.8.2 2.5 0 .6-.3.1-.5-1.3-.5-1.4 0-1.9.2-1.2.5zM235.8 241.7c.6.2 1.8.2 2.5 0 .6-.3.1-.5-1.3-.5-1.4 0-1.9.2-1.2.5zM273.8 241.7c.6.2 1.8.2 2.5 0 .6-.3.1-.5-1.3-.5-1.4 0-1.9.2-1.2.5zM311.8 241.7c.6.2 1.8.2 2.5 0 .6-.3.1-.5-1.3-.5-1.4 0-1.9.2-1.2.5zM349.8 241.7c.6.2 1.8.2 2.5 0 .6-.3.1-.5-1.3-.5-1.4 0-1.9.2-1.2.5z"/><path d="M172.5 245.2c1.1 4.8 1.1 4.8 7.6 4.8 5.5 0 6-.2 6.9-2.6 2-5.1 1.6-5.4-7.1-5.4h-8.1l.7 3.2zM248.5 245.2c1.1 4.8 1.1 4.8 7.9 4.8 6.3 0 6.4 0 7-3.1.3-1.7.6-3.5.6-4s-3.6-.9-8.1-.9h-8.1l.7 3.2zM324.4 243.7c1.8 6.7 1.3 6.3 8 6.3h6.4l1-4 1-4h-8.5c-7.6 0-8.4.2-7.9 1.7zM159 276.1c0 30 .1 32 1.8 31.7 1.6-.3 1.7-2.7 2.2-28.3l.5-27.9 4.2-.9c3.8-.7 4.1-1 3.4-3-.7-1.8-1.5-2.1-4.5-1.9-2.1.2-3.6-.1-3.6-.7s-.9-1.1-2-1.1c-2 0-2 .7-2 32.1zM196 245c0 .5-1.5 1-3.4 1-2.5 0-3.5.5-3.9 2-.4 1.6.2 2.1 3.7 2.7l4.1.9.3 28.2c.2 27.4.3 28.2 2.2 28.2 2 0 2-.8 2-32v-32h-2.5c-1.4 0-2.5.4-2.5 1zM235 276.1c0 30 .1 32 1.8 31.7 1.6-.3 1.7-2.7 2.2-28.3l.5-27.9 4.1-.9c3.5-.6 4.1-1.1 3.7-2.7-.4-1.6-1.4-2-4.4-2-2.2 0-3.9-.5-3.9-1 0-.6-.9-1-2-1-2 0-2 .7-2 32.1zM273 245.1c0 .6-1.5.9-3.7.7-3.3-.3-3.8 0-4.1 1.9-.3 1.7.3 2.4 2.5 2.8 1.5.4 3.4.8 4.1 1.1.9.2 1.2 6.8 1.2 28.4 0 27.3 0 28 2 28s2-.7 2-32 0-32-2-32c-1.1 0-2 .5-2 1.1zM311 276c0 31.2 0 32 2 32 1.9 0 2-.8 2.2-28.2l.3-28.2 4.3-.9c4.4-.9 4.8-1.3 3.2-3.7-.6-.9-2.1-1.4-4.5-1.2-2 .2-3.5-.1-3.5-.7s-.9-1.1-2-1.1c-2 0-2 .7-2 32zM349 245.1c0 .6-1.5.9-3.7.7-3.3-.3-3.8 0-4.1 1.9-.3 1.7.3 2.4 2.5 2.8 1.5.4 3.4.8 4.1 1.1.9.2 1.2 6.8 1.2 28.4 0 27.3 0 28 2 28s2-.7 2-32 0-32-2-32c-1.1 0-2 .5-2 1.1z"/><path d="M167.3 253.7c-.9.3-1.3 2.9-1.3 7.9v7.4h12v-16l-4.7.1c-2.7 0-5.4.3-6 .6zM181 261v8h13v-7.4c0-8.4-.2-8.6-8.1-8.6H181v8zM243.3 253.7c-.9.3-1.3 2.9-1.3 7.9v7.4h12v-16l-4.7.1c-2.7 0-5.4.3-6 .6zM257 261v8h13v-7.4c0-8.4-.2-8.6-8.1-8.6H257v8zM319.3 253.7c-.9.3-1.3 2.9-1.3 7.9v7.4h13v-16l-5.2.1c-2.9 0-5.9.3-6.5.6zM334 261v8h12v-7.4c0-8.3-.2-8.6-7.6-8.6H334v8zM166 280v8h12v-16h-12v8zM181 280v8h13v-16h-13v8zM242 280v8h12v-16h-12v8zM257 280v8h13v-16h-13v8zM318 280v8h13v-16h-13v8zM334 280v8h12v-16h-12v8zM166 298.5v7.5h12v-15h-12v7.5zM181 298.5v7.5h13v-15h-13v7.5zM242 298.5v7.5h12v-15h-12v7.5zM257 298.5v7.5h13v-15h-13v7.5zM318 298.5v7.5h13v-15h-13v7.5zM334 298.5v7.5h12v-15h-12v7.5zM114 311.5c0 1.3 16.4 1.5 142 1.5s142-.2 142-1.5-16.4-1.5-142-1.5-142 .2-142 1.5zM118 356v41h14l-.2-40.8-.3-40.7-6.7-.3-6.8-.3V356zM134 356v41h23v-82h-23v41zM165 324v9h3c2.8 0 2.9-.2 2.4-3.3-.3-1.7-.7-3.8-1-4.5-.2-.9 2.3-1.2 10.5-1.2h10.9l-.6 4.5c-.4 4.3-.4 4.5 2.2 4.5h2.7l-.3-8.8-.3-8.7-14.7-.3-14.8-.3v9.1zM203 356v41h30v-33.9c0-27.5-.3-34.6-1.5-38.1-.8-2.3-1.5-4.4-1.5-4.6 0-.2.7-.4 1.5-.4.9 0 1.5-.9 1.5-2.5V315h-30v41zM235 317.5c0 1.8.5 2.5 2 2.5s2-.7 2-2.5-.5-2.5-2-2.5-2 .7-2 2.5zM241 317.5v2.5h30v-5h-30v2.5zM273 317.5c0 1.8.5 2.5 2 2.5s2-.7 2-2.5-.5-2.5-2-2.5-2 .7-2 2.5zM279 317.5c0 1.6.6 2.5 1.6 2.5 1.2 0 1.4.7.9 3.2-.4 1.8-1.1 3.7-1.6 4.2-.5.6-.9 16.4-.9 35.3V397h30v-82h-30v2.5zM317.7 315.7c-.4.3-.7 4.4-.7 9v8.3h6.1l-.7-4.5-.6-4.5H343.1l-.7 4.5c-.6 4.4-.5 4.5 2 4.5h2.6v-18h-14.3c-7.9 0-14.7.3-15 .7zM355 356v41h24l-.2-40.8-.3-40.7-11.7-.3-11.8-.3V356zM381 356v41h13l-.2-40.8-.3-40.7-6.2-.3-6.3-.3V356zM159 319.5c0 .8.9 1.5 2 1.5s2-.7 2-1.5-.9-1.5-2-1.5-2 .7-2 1.5zM197 319.5c0 .8.9 1.5 2 1.5s2-.7 2-1.5-.9-1.5-2-1.5-2 .7-2 1.5zM311 319.5c0 .8.9 1.5 2 1.5s2-.7 2-1.5-.9-1.5-2-1.5-2 .7-2 1.5zM349 319.5c0 .8.9 1.5 2 1.5s2-.7 2-1.5-.9-1.5-2-1.5-2 .7-2 1.5z"/><path d="M233.2 323.7c.3 1.6 2.3 1.8 22.9 2.1 22 .2 22.7.2 23.2-1.8s.1-2-23-2c-21.8 0-23.4.1-23.1 1.7zM159.8 323.7c.6.2 1.8.2 2.5 0 .6-.3.1-.5-1.3-.5-1.4 0-1.9.2-1.2.5zM197.8 323.7c.6.2 1.8.2 2.5 0 .6-.3.1-.5-1.3-.5-1.4 0-1.9.2-1.2.5zM311.8 323.7c.6.2 1.8.2 2.5 0 .6-.3.1-.5-1.3-.5-1.4 0-1.9.2-1.2.5zM349.8 323.7c.6.2 1.8.2 2.5 0 .6-.3.1-.5-1.3-.5-1.4 0-1.9.2-1.2.5zM172.5 329.7c1.4 9.8 1 9.4 7.9 9.1l6.1-.3 1.1-6.2c.6-3.5.9-6.5.6-6.8-.3-.3-4.1-.5-8.5-.5h-7.9l.7 4.7zM159 361.5c0 34.8 0 35.5 2 35.5s2-.7 2-27.9c0-30.8-.6-28 6.3-29.5 2-.5 2.7-1.2 2.5-2.4-.3-1.3-1.4-1.7-4.6-1.7H163v-4.8c0-4-.3-4.7-2-4.7-2 0-2 .7-2 35.5zM196 330.8v4.8l-3.4-.4c-2.7-.3-3.4 0-3.9 1.7-.6 2.5-.4 2.6 4.6 3.5l3.7.7V369c0 27.3 0 28 2 28s2-.7 2-35.5V326h-2.5c-2.3 0-2.5.3-2.5 4.8zM311 361.5c0 34.8 0 35.5 2 35.5s2-.7 2-27.9c0-30.8-.6-28 6.3-29.5 1.9-.5 2.7-1.3 2.7-2.7 0-1.8-.5-2-4.2-1.7l-4.3.3-.3-4.8c-.3-3.9-.6-4.7-2.3-4.7-1.8 0-1.9 1-1.9 35.5zM324 326.8c0 .5.5 3.4 1.1 6.5l1.2 5.7h12.5l.6-4.8c.4-2.6.9-5.5 1.2-6.5.5-1.5-.3-1.7-8-1.7-4.7 0-8.6.4-8.6.8zM348.8 330.7l-.3 4.8-3.7-.3c-3.5-.3-3.8-.1-3.8 2.1 0 2.1.6 2.5 4 3.1l4 .6v28c0 27.3 0 28 2 28s2-.7 2-35.5c0-34.5-.1-35.5-1.9-35.5-1.7 0-2 .8-2.3 4.7zM235 329.5c0 .8.9 1.5 2 1.5s2-.7 2-1.5-.9-1.5-2-1.5-2 .7-2 1.5zM241 329.5c0 1.3 2.3 1.5 15 1.5s15-.2 15-1.5-2.3-1.5-15-1.5-15 .2-15 1.5zM273 329.5c0 .8.9 1.5 2 1.5s2-.7 2-1.5-.9-1.5-2-1.5-2 .7-2 1.5zM235 365c0 31.3 0 32 2 32 1.9 0 2-.8 2.2-29.7l.3-29.7 3-.8c4.2-1.2 17.8-1.4 24.8-.4l5.7.7v30c0 29.2 0 29.9 2 29.9s2-.7 2-32v-32h-42v32z"/><path d="M247 338.9l-4.5.6-.3 6.7-.3 6.8h13.2l-.3-7.2c-.3-8.1-.2-7.9-7.8-6.9zM257.6 338.7c-.3.3-.6 3.7-.6 7.5v6.8h13v-6.5c0-4.4-.4-6.7-1.2-6.9-2.8-.9-10.6-1.5-11.2-.9zM168.3 342.7c-2.1.4-2.3 1-2.3 7.9v7.4h12v-16l-3.7.1c-2.1.1-4.8.4-6 .6zM181 350v8h13v-14.8l-3.1-.6c-1.7-.3-4.7-.6-6.5-.6H181v8zM320.3 342.7c-2.1.4-2.3 1-2.3 7.9v7.4h13v-16l-4.2.1c-2.4.1-5.3.4-6.5.6zM334 350v8h12v-14.8l-3.1-.6c-1.7-.3-4.4-.6-6-.6H334v8zM242 363v7h13v-14h-13v7zM257 363v7h13v-14h-13v7zM166 369v8h12v-16h-12v8zM181 369v8h13v-16h-13v8zM318 369v8h13v-16h-13v8zM334 369v8h12v-16h-12v8zM242 380.5v7.6l6.3-.3 6.2-.3.3-7.3.3-7.2H242v7.5zM257.2 380.2l.3 7.3 6.3.3 6.2.3V373h-13.1l.3 7.2zM166 387.5v7.5h12v-15h-12v7.5zM181 387.5v7.5h13v-15h-13v7.5zM318 387.5v7.5h13v-15h-13v7.5zM334 387.5v7.5h12v-15h-12v7.5zM242 398v8h13.1l-.3-7.8-.3-7.7-6.2-.3-6.3-.3v8.1zM257.7 390.7c-.4.3-.7 3.9-.7 8v7.3h13v-16h-5.8c-3.2 0-6.2.3-6.5.7zM114.2 400.7c.3 1.7 4.2 1.8 62.6 2.1 61.7.2 62.2.2 62.2-1.8s-.6-2-62.6-2c-59 0-62.5.1-62.2 1.7zM273 401c0 2 .5 2 62.2 1.8 58.4-.3 62.3-.4 62.6-2.1.3-1.6-3.2-1.7-62.2-1.7-62 0-62.6 0-62.6 2zM118 409v4h103v-2.5c0-2.5.1-2.5 9-2.5 7.3 0 9-.3 9-1.5 0-1.3-7.4-1.5-60.5-1.5H118v4zM273 406.5c0 1.2 1.7 1.5 9 1.5 8.9 0 9 0 9 2.5v2.5l51.3-.2 51.2-.3.3-3.8.3-3.7h-60.5c-53.2 0-60.6.2-60.6 1.5z"/><path d="M223 411.5c0 1.3 4.3 1.5 33 1.5s33-.2 33-1.5-4.3-1.5-33-1.5-33 .2-33 1.5zM114.2 421.2l.3 6.3h87l.3-2.8c.3-2.4.8-2.7 3.8-2.7 2.7 0 3.4-.4 3.4-1.9 0-1.4.8-2.1 2.7-2.3 1.4-.2 2.8-.9 3.1-1.6.3-.9-10.2-1.2-50.3-1.2h-50.6l.3 6.2zM217 416.5c0 1.3 5 1.5 39 1.5s39-.2 39-1.5-5-1.5-39-1.5-39 .2-39 1.5zM297.2 416.2c.3.7 1.9 1.4 3.6 1.6 2.4.2 3.2.8 3.2 2.3 0 1.4.7 1.9 2.9 1.9 2.5 0 3 .4 3.3 2.7l.3 2.8 43.8.3 43.7.2v-13h-50.6c-40 0-50.5.3-50.2 1.2zM211 420.5c0 1.3 5.6 1.5 45.6 1.5 36 0 45.5-.3 45.2-1.3-.4-.9-10.6-1.3-45.6-1.5-39.8-.2-45.2 0-45.2 1.3z"/><path d="M204 425.5c0 1.3 6.4 1.5 52 1.5s52-.2 52-1.5-6.4-1.5-52-1.5-52 .2-52 1.5z"/></svg>